<svg id="icons" enable-background="new 0 0 64 64" height="512" viewBox="0 0 64 64" width="512" xmlns="http://www.w3.org/2000/svg"><g><path d="m14 59h12v3h-12z" fill="#ffce54"/></g><g><path d="m26 62h12v1h-12z" fill="#656d78"/></g><g><path d="m14 62h12v1h-12z" fill="#656d78"/></g><g><path d="m11 23v6c0 6.16 3.7 11.44 9 13.75v.01 2.24 3.01l-8-.01c-1.54 0-2.94.58-4 1.53v-26.52-.01z" fill="#965353"/></g><g><path d="m51 51.01h7v11.99h-7z" fill="#656d78"/></g><g><path d="m58 48.01h2v3h-2-7-2v-3h2z" fill="#e6e9ed"/></g><g><path d="m56 32.01 2 16h-7l2.01-16z" fill="#ccd1d9"/></g><g><path d="m26 59h12v3h-12z" fill="#ffce54"/></g><g><path d="m30 13v7h-8v-7h1 6z" fill="#ffce54"/></g><g><path d="m23 2.03v10.97h-1v7h-13.96v-3c0-8.27 6.69-14.97 14.96-14.97z" fill="#da4453"/></g><g><path d="m44.04 17v3h-14.04v-7h-1v-11h.04c8.29 0 15 6.71 15 15z" fill="#da4453"/></g><g><path d="m38 59h-12v-8l6-3 8 .01c1.54 0 2.94.58 4 1.53 1.23 1.1 2 2.69 2 4.47v8.99h-8v-1z" fill="#656d78"/></g><g><path d="m44 49.54c-1.06-.95-2.46-1.53-4-1.53l-8-.01-.01.005 4.006.005c1.54 0 2.94.58 4 1.53 1.23 1.1 2 2.69 2 4.47v8.99h4.004v-8.99c0-1.78-.77-3.37-2-4.47z" fill="#545c66"/></g><g><path d="m32 45v3l-6 3v-3z" fill="#e6e9ed"/></g><g><path d="m29 2v11h-6v-10.97-1.03h6z" fill="#ed5565"/></g><g><path d="m44 23.01v26.53c-1.06-.95-2.46-1.53-4-1.53l-8-.01v-3-2.24-.01c5.3-2.31 9-7.6 9-13.75v-6h3z" fill="#965353"/></g><g><path d="m8.04 20h13.96 8 14.04 2.46c.83 0 1.5.67 1.5 1.5s-.67 1.5-1.5 1.5h-2.5-3-30-3-2.5c-.83 0-1.5-.67-1.5-1.5 0-.82.67-1.5 1.5-1.5z" fill="#ed5565"/></g><g><path d="m20 45 6 3v3l-6-2.99z" fill="#e6e9ed"/></g><g><path d="m14 62v1h-8v-8.99c0-1.779.77-3.38 2-4.479 1.06-.951 2.46-1.531 4-1.531l8 .01 6 2.99v8h-12z" fill="#656d78"/></g><g><path d="m20 42.75c1.84.81 3.87 1.25 6 1.25s4.16-.45 6-1.25v.01 2.24l-6 3-6-3v-2.24z" fill="#eac6bb"/></g><g><path d="m41 23v6c0 6.15-3.7 11.44-9 13.75-1.84.8-3.87 1.25-6 1.25s-4.16-.44-6-1.25c-5.3-2.31-9-7.59-9-13.75v-6z" fill="#eac6bb"/></g><g><path d="m36.996 23v6c0 6.15-3.7 11.44-9 13.75-1.254.545-2.602.912-4.004 1.101.658.088 1.325.149 2.008.149 2.13 0 4.16-.45 6-1.25 5.3-2.31 9-7.6 9-13.75v-6z" fill="#d3b1a9"/></g><g><path d="m6 55.006c-.553 0-1-.447-1-1 0-3.861 3.141-7.002 7.002-7.002.553 0 1 .447 1 1s-.447 1-1 1c-2.758 0-5.002 2.244-5.002 5.002 0 .553-.447 1-1 1z"/></g><g><path d="m46 55.006c-.553 0-1-.447-1-1 0-2.757-2.243-5-5-5-.553 0-1-.447-1-1s.447-1 1-1c3.859 0 7 3.141 7 7 0 .553-.447 1-1 1z"/></g><g><path d="m20 49.006-7.998-.002c-.553 0-1-.448-1-1 0-.553.448-1 1-1l7.998.002c.553 0 1 .448 1 1 0 .553-.448 1-1 1z"/></g><g><path d="m40 49.006-8-.002c-.553 0-1-.448-1-1 0-.553.448-1 1-1l8 .002c.553 0 1 .448 1 1 0 .553-.448 1-1 1z"/></g><g><path d="m6 64.002c-.553 0-1-.447-1-1v-8.996c0-.553.447-1 1-1s1 .447 1 1v8.996c0 .553-.447 1-1 1z"/></g><g><path d="m46 64.002c-.553 0-1-.447-1-1v-8.996c0-.553.447-1 1-1s1 .447 1 1v8.996c0 .553-.447 1-1 1z"/></g><g><path d="m20 49.006c-.553 0-1-.447-1-1v-5.25c0-.553.447-1 1-1s1 .447 1 1v5.25c0 .553-.447 1-1 1z"/></g><g><path d="m32 49.004c-.553 0-1-.447-1-1v-5.248c0-.553.447-1 1-1s1 .447 1 1v5.248c0 .553-.447 1-1 1z"/></g><g><path d="m26 45.004c-8.822 0-16-7.178-16-16 0-.553.447-1 1-1s1 .447 1 1c0 7.72 6.28 14 14 14s14-6.28 14-14c0-.553.447-1 1-1s1 .447 1 1c0 8.822-7.178 16-16 16z"/></g><g><path d="m11 30.004c-.553 0-1-.447-1-1v-6c0-.553.447-1 1-1s1 .447 1 1v6c0 .553-.447 1-1 1z"/></g><g><path d="m41 30.004c-.553 0-1-.447-1-1v-6c0-.553.447-1 1-1s1 .447 1 1v6c0 .553-.447 1-1 1z"/></g><g><path d="m8 50.533c-.553 0-1-.447-1-1v-26.527c0-.553.447-1 1-1s1 .447 1 1v26.527c0 .553-.447 1-1 1z"/></g><g><path d="m44 50.535c-.553 0-1-.447-1-1v-26.529c0-.553.447-1 1-1s1 .447 1 1v26.529c0 .553-.447 1-1 1z"/></g><g><path d="m5.5 24.004c-1.379 0-2.5-1.121-2.5-2.5s1.121-2.5 2.5-2.5c.553 0 1 .447 1 1s-.447 1-1 1c-.275 0-.5.225-.5.5s.225.5.5.5c.553 0 1 .447 1 1s-.447 1-1 1z"/></g><g><path d="m46.502 24.002c-.553 0-1-.447-1-1s.447-1 1-1c.275 0 .5-.225.5-.5s-.225-.5-.5-.5c-.553 0-1-.447-1-1s.447-1 1-1c1.379 0 2.5 1.121 2.5 2.5s-1.121 2.5-2.5 2.5z"/></g><g><path d="m46.502 21.004h-41.002c-.553 0-1-.447-1-1s.447-1 1-1h41.002c.553 0 1 .447 1 1s-.447 1-1 1z"/></g><g><path d="m46.502 24.002h-41.002c-.553 0-1-.447-1-1s.447-1 1-1h41.002c.553 0 1 .447 1 1s-.447 1-1 1z"/></g><g><path d="m8.035 20.998c-.553 0-1-.447-1-1v-2.998c0-.553.447-1 1-1s1 .447 1 1v2.998c0 .553-.447 1-1 1z"/></g><g><path d="m44.041 21.004c-.553 0-1-.447-1-1v-3.004c0-.553.447-1 1-1s1 .447 1 1v3.004c0 .553-.447 1-1 1z"/></g><g><path d="m29.002 13.996h-6c-.553 0-1-.447-1-1v-11.998c0-.553.447-1 1-1h6c.553 0 1 .447 1 1v11.998c0 .553-.447 1-1 1zm-5-2h4v-9.998h-4z"/></g><g><path d="m30 20.998h-8c-.553 0-1-.447-1-1v-6.998c0-.553.447-1 1-1h8c.553 0 1 .447 1 1v6.998c0 .553-.447 1-1 1zm-7-2h6v-4.998h-6z"/></g><g><path d="m8.035 18c-.553 0-1-.447-1-1 0-8.804 7.163-15.967 15.967-15.967.553 0 1 .447 1 1s-.447 1-1 1c-7.701 0-13.967 6.266-13.967 13.967 0 .553-.447 1-1 1z"/></g><g><path d="m44.041 18c-.553 0-1-.447-1-1 0-7.719-6.279-13.998-13.998-13.998-.553 0-1-.447-1-1s.447-1 1-1c8.821 0 15.998 7.177 15.998 15.998 0 .553-.447 1-1 1z"/></g><g><path d="m25.999 52.004c-.15 0-.303-.034-.446-.105l-6-2.998c-.494-.247-.694-.848-.447-1.342.246-.494.848-.692 1.342-.447l6 2.998c.494.247.694.848.447 1.342-.175.35-.529.552-.896.552z"/></g><g><path d="m26.001 52.004c-.367 0-.72-.202-.896-.553-.247-.494-.047-1.095.447-1.342l6-3c.494-.246 1.094-.047 1.342.447.247.494.047 1.095-.447 1.342l-6 3c-.143.072-.296.106-.446.106z"/></g><g><path d="m25.999 49.002c-.15 0-.303-.034-.446-.105l-6-2.998c-.494-.247-.694-.848-.447-1.342.246-.494.848-.693 1.342-.447l6 2.998c.494.247.694.848.447 1.342-.175.35-.529.552-.896.552z"/></g><g><path d="m26.001 49.002c-.367 0-.721-.202-.896-.553-.247-.494-.047-1.095.447-1.342l6-2.998c.494-.246 1.095-.047 1.342.447s.047 1.095-.447 1.342l-6 2.998c-.143.072-.296.106-.446.106z"/></g><g><path d="m26 64.002c-.553 0-1-.447-1-1v-15c0-.553.447-1 1-1s1 .447 1 1v15c0 .553-.447 1-1 1z"/></g><g><path d="m38 64.002c-.553 0-1-.447-1-1v-5c0-.553.447-1 1-1s1 .447 1 1v5c0 .553-.447 1-1 1z"/></g><g><path d="m14 64.002c-.553 0-1-.447-1-1v-5c0-.553.447-1 1-1s1 .447 1 1v5c0 .553-.447 1-1 1z"/></g><g><path d="m38 60.002h-24.062c-.553 0-1-.447-1-1s.447-1 1-1h24.062c.553 0 1 .447 1 1s-.447 1-1 1z"/></g><g><path d="m38 63.002h-24.062c-.553 0-1-.447-1-1s.447-1 1-1h24.062c.553 0 1 .447 1 1s-.447 1-1 1z"/></g><g><path d="m60 52.008h-10.996c-.553 0-1-.447-1-1v-3c0-.553.447-1 1-1h10.996c.553 0 1 .447 1 1v3c0 .553-.447 1-1 1zm-9.996-2h8.996v-1h-8.996z"/></g><g><path d="m58 49.008h-6.996c-.287 0-.56-.123-.75-.338-.189-.216-.278-.502-.242-.786l2.002-16.006c.063-.5.488-.876.992-.876h2.992c.504 0 .93.376.992.876l2.002 16.006c.036.284-.053.57-.242.786-.19.215-.463.338-.75.338zm-5.863-2h4.73l-1.752-14.006h-1.227z"/></g><g><path d="m57.002 33.006h-5c-.553 0-1-.447-1-1s.447-1 1-1h5c.553 0 1 .447 1 1s-.447 1-1 1z"/></g><g><path d="m51.002 64.002c-.553 0-1-.447-1-1v-11.994c0-.553.447-1 1-1s1 .447 1 1v11.994c0 .553-.447 1-1 1z"/></g><g><path d="m58.002 64.002c-.553 0-1-.447-1-1v-11.994c0-.553.447-1 1-1s1 .447 1 1v11.994c0 .553-.447 1-1 1z"/></g></svg>